nColumns=19
nRows=123
DataType=double
version=3
OpenSimVersion=4.1
endheader
time	ground_force_1_vx	ground_force_1_vy	ground_force_1_vz	ground_force_1_px	ground_force_1_py	ground_force_1_pz	ground_force_1_mx	ground_force_1_my	ground_force_1_mz	ground_force_2_vx	ground_force_2_vy	ground_force_2_vz	ground_force_2_px	ground_force_2_py	ground_force_2_pz	ground_force_2_mx	ground_force_2_my	ground_force_2_mz
1.39167	0	0	0	-0.00230233	0	-4.58189e-05	0	0	0	7.28825	16.1665	-3.23466	0.815136	0	-0.188878	0	-2.60931	0
1.4	0	0	0	-0.00230247	0	-4.58519e-05	0	0	0	0	0	0	-0.0023016	0	-4.57233e-05	0	0	0
1.40833	0	0	0	-0.0023026	0	-4.58847e-05	0	0	0	0	0	0	-0.00230173	0	-4.57551e-05	0	0	0
1.41667	0	0	0	-0.00230274	0	-4.59173e-05	0	0	0	0	0	0	-0.00230185	0	-4.57868e-05	0	0	0
1.425	0	0	0	-0.00230287	0	-4.59497e-05	0	0	0	0	0	0	-0.00230198	0	-4.58182e-05	0	0	0
1.43333	0	0	0	-0.002303	0	-4.59818e-05	0	0	0	0	0	0	-0.00230211	0	-4.58493e-05	0	0	0
1.44167	0	0	0	-0.00230313	0	-4.60136e-05	0	0	0	0	0	0	-0.00230223	0	-4.58803e-05	0	0	0
1.45	0	0	0	-0.00230326	0	-4.60452e-05	0	0	0	0	0	0	-0.00230235	0	-4.5911e-05	0	0	0
1.45833	0	0	0	-0.00230339	0	-4.60766e-05	0	0	0	0	0	0	-0.00230248	0	-4.59414e-05	0	0	0
1.46667	0	0	0	-0.00230352	0	-4.61076e-05	0	0	0	0	0	0	-0.0023026	0	-4.59716e-05	0	0	0
1.475	0	0	0	-0.00230364	0	-4.61384e-05	0	0	0	0	0	0	-0.00230272	0	-4.60015e-05	0	0	0
1.48333	0	0	0	-0.00230377	0	-4.6169e-05	0	0	0	0	0	0	-0.00230284	0	-4.60311e-05	0	0	0
1.49167	-5.52044	25.7255	-11.3809	1.29344	0	-0.231086	0	-1.54625	0	0	0	0	-0.00230295	0	-4.60605e-05	0	0	0
1.5	-29.6579	74.4416	-22.779	1.35122	0	-0.273079	-0	1.83773	-0	0	0	0	-0.00230307	0	-4.60896e-05	0	0	0
1.50833	-81.0328	187.643	-38.0811	1.37787	0	-0.289568	-0	5.64701	-0	0	0	0	-0.00230319	0	-4.61185e-05	0	0	0
1.51667	-148.876	374.137	-52.7486	1.38776	0	-0.297408	-0	8.97653	-0	0	0	0	-0.0023033	0	-4.6147e-05	0	0	0
1.525	-188.096	598.246	-59.7573	1.37878	0	-0.303122	-0	10.9008	-0	0	0	0	-0.00230342	0	-4.61753e-05	0	0	0
1.53333	-178.304	834.711	-53.3785	1.34562	0	-0.309133	-0	10.7797	-0	0	0	0	-0.00230353	0	-4.62032e-05	0	0	0
1.54167	-166.964	1083.07	-31.38	1.30208	0	-0.315362	-0	8.50156	-0	0	0	0	-0.00230364	0	-4.62309e-05	0	0	0
1.55	-185.529	1320.04	4.25063	1.26519	0	-0.320629	-0	4.55724	-0	0	0	0	-0.00230375	0	-4.62583e-05	0	0	0
1.55833	-206.057	1519.74	45.4364	1.23448	0	-0.324651	0	-0.099247	0	0	0	0	-0.00230386	0	-4.62854e-05	0	0	0
1.56667	-194.42	1679.51	79.7072	1.20292	0	-0.327886	0	-4.36787	0	0	0	0	-0.00230397	0	-4.63121e-05	0	0	0
1.575	-144.874	1804.89	98.1667	1.16847	0	-0.330343	0	-7.37323	0	0	0	0	-0.00230407	0	-4.63385e-05	0	0	0
1.58333	-77.667	1892.42	101.579	1.13443	0	-0.331857	0	-8.72393	0	0	0	0	-0.00230418	0	-4.63647e-05	0	0	0
1.59167	-12.0373	1938.22	97.3081	1.10268	0	-0.332158	0	-8.55418	0	0	0	0	-0.00230428	0	-4.63905e-05	0	0	0
1.6	49.0233	1942.17	91.5	1.07194	0	-0.331493	0	-7.36508	0	0	0	0	-0.00230438	0	-4.64159e-05	0	0	0
1.60833	105.132	1901.62	85.7624	1.04142	0	-0.330679	0	-5.77605	0	0	0	0	-0.00230449	0	-4.64411e-05	0	0	0
1.61667	154.025	1813.01	79.9561	1.01158	0	-0.330214	0	-4.30275	0	0	0	0	-0.00230459	0	-4.64659e-05	0	0	0
1.625	191.505	1675.83	74.8482	0.98295	0	-0.330123	0	-3.2267	0	0	0	0	-0.00230468	0	-4.64904e-05	0	0	0
1.63333	217.468	1491.65	70.927	0.954778	0	-0.330105	0	-2.5727	0	0	0	0	-0.00230478	0	-4.65145e-05	0	0	0
1.64167	236.369	1263.06	66.3048	0.924759	0	-0.329825	0	-2.18119	0	0	0	0	-0.00230488	0	-4.65383e-05	0	0	0
1.65	246.518	1000.07	57.7094	0.890287	0	-0.3295	0	-1.83758	0	0	0	0	-0.00230497	0	-4.65617e-05	0	0	0
1.65833	239.321	731.323	44.0306	0.851588	0	-0.329134	0	-1.39763	0	0	0	0	-0.00230506	0	-4.65848e-05	0	0	0
1.66667	206.653	492.284	28.1623	0.815576	0	-0.327889	0	-0.84955	0	0	0	0	-0.00230516	0	-4.66075e-05	0	0	0
1.675	155.338	304.2	14.6845	0.791249	0	-0.324389	0	-0.291956	0	0	0	0	-0.00230525	0	-4.66299e-05	0	0	0
1.68333	101.085	170.986	6.05479	0.782759	0	-0.316585	-0	0.140658	-0	0	0	0	-0.00230533	0	-4.66519e-05	0	0	0
1.69167	56.4783	85.1808	1.65932	0.783347	0	-0.302912	-0	0.349891	-0	0	0	0	-0.00230542	0	-4.66735e-05	0	0	0
1.7	27.6476	36.629	-0.229967	0.77771	0	-0.275602	-0	0.307165	-0	0	0	0	-0.00230551	0	-4.66948e-05	0	0	0
1.70833	11.9521	14.4149	-0.812234	0.823265	0	-0.202526	-0	0.048884	-0	0	0	0	-0.00230559	0	-4.67157e-05	0	0	0
1.71667	0	0	0	-0.00230675	0	-4.68951e-05	0	0	0	0	0	0	-0.00230567	0	-4.67362e-05	0	0	0
1.725	0	0	0	-0.00230683	0	-4.69158e-05	0	0	0	0	0	0	-0.00230575	0	-4.67563e-05	0	0	0
1.73333	0	0	0	-0.00230692	0	-4.69362e-05	0	0	0	0	0	0	-0.00230583	0	-4.67761e-05	0	0	0
1.74167	0	0	0	-0.002307	0	-4.69561e-05	0	0	0	0	0	0	-0.00230591	0	-4.67954e-05	0	0	0
1.75	0	0	0	-0.00230708	0	-4.69756e-05	0	0	0	0	0	0	-0.00230599	0	-4.68144e-05	0	0	0
1.75833	0	0	0	-0.00230716	0	-4.69948e-05	0	0	0	0	0	0	-0.00230606	0	-4.6833e-05	0	0	0
1.76667	0	0	0	-0.00230723	0	-4.70135e-05	0	0	0	0	0	0	-0.00230614	0	-4.68511e-05	0	0	0
1.775	0	0	0	-0.00230731	0	-4.70318e-05	0	0	0	0	0	0	-0.00230621	0	-4.68689e-05	0	0	0
1.78333	0	0	0	-0.00230738	0	-4.70497e-05	0	0	0	0	0	0	-0.00230628	0	-4.68863e-05	0	0	0
1.79167	0	0	0	-0.00230745	0	-4.70672e-05	0	0	0	0	0	0	-0.00230635	0	-4.69033e-05	0	0	0
1.8	0	0	0	-0.00230752	0	-4.70842e-05	0	0	0	0	0	0	-0.00230641	0	-4.69198e-05	0	0	0
1.80833	0	0	0	-0.00230759	0	-4.71009e-05	0	0	0	0	0	0	-0.00230648	0	-4.6936e-05	0	0	0
1.81667	0	0	0	-0.00230766	0	-4.71171e-05	0	0	0	-1.61902	11.2992	-0.931207	1.44571	0	-0.274658	-0	2.7776	-0
1.825	0	0	0	-0.00230772	0	-4.71329e-05	0	0	0	-11.5553	38.096	-0.680623	1.44453	0	-0.372523	-0	1.42667	-0
1.83333	0	0	0	-0.00230779	0	-4.71482e-05	0	0	0	-43.8785	116.838	4.30843	1.4223	0	-0.388623	0	-0.756326	0
1.84167	0	0	0	-0.00230785	0	-4.71632e-05	0	0	0	-108.51	278.269	18.4133	1.41629	0	-0.385748	0	-3.3851	0
1.85	0	0	0	-0.00230791	0	-4.71776e-05	0	0	0	-182.715	506.441	41.7835	1.41193	0	-0.37946	0	-5.80948	0
1.85833	0	0	0	-0.00230797	0	-4.71917e-05	0	0	0	-215.703	749.291	64.8625	1.3928	0	-0.373113	0	-7.28225	0
1.86667	0	0	0	-0.00230802	0	-4.72053e-05	0	0	0	-203.328	989.4	72.1523	1.35368	0	-0.367796	0	-7.23041	0
1.875	0	0	0	-0.00230808	0	-4.72185e-05	0	0	0	-192.375	1223.76	56.6604	1.31131	0	-0.363959	0	-5.5069	0
1.88333	0	0	0	-0.00230813	0	-4.72312e-05	0	0	0	-198.161	1433.84	27.5808	1.27755	0	-0.360243	0	-2.46797	0
1.89167	0	0	0	-0.00230818	0	-4.72435e-05	0	0	0	-198.259	1613.21	0.267495	1.24692	0	-0.355847	-0	1.181	-0
1.9	0	0	0	-0.00230823	0	-4.72553e-05	0	0	0	-170.075	1762.14	-17.3496	1.21258	0	-0.351644	-0	4.67324	-0
1.90833	0	0	0	-0.00230827	0	-4.72667e-05	0	0	0	-114.547	1867.36	-26.4725	1.17626	0	-0.348786	-0	7.43629	-0
1.91667	0	0	0	-0.00230832	0	-4.72777e-05	0	0	0	-51.4928	1912.64	-30.6413	1.1428	0	-0.347621	-0	9.21221	-0
1.925	0	0	0	-0.00230836	0	-4.72881e-05	0	0	0	9.30203	1899.44	-31.6389	1.11218	0	-0.34698	-0	10.039	-0
1.93333	0	0	0	-0.0023084	0	-4.72982e-05	0	0	0	69.59	1837.15	-30.8746	1.08176	0	-0.345654	-0	10.1432	-0
1.94167	0	0	0	-0.00230844	0	-4.73078e-05	0	0	0	125.626	1726.96	-30.7036	1.05088	0	-0.343692	-0	9.80178	-0
1.95	0	0	0	-0.00230848	0	-4.73169e-05	0	0	0	172.073	1565.15	-32.6138	1.02031	0	-0.341578	-0	9.22362	-0
1.95833	0	0	0	-0.00230851	0	-4.73255e-05	0	0	0	206.229	1351.64	-35.4583	0.989731	0	-0.339447	-0	8.49297	-0
1.96667	0	0	0	-0.00230855	0	-4.73337e-05	0	0	0	229.785	1095.8	-36.5134	0.956151	0	-0.337513	-0	7.58758	-0
1.975	0	0	0	-0.00230858	0	-4.73415e-05	0	0	0	237.067	822.648	-33.9171	0.918617	0	-0.336026	-0	6.44979	-0
1.98333	0	0	0	-0.00230861	0	-4.73487e-05	0	0	0	215.077	567.631	-27.8553	0.882953	0	-0.33473	-0	5.06573	-0
1.99167	0	0	0	-0.00230864	0	-4.73555e-05	0	0	0	164.804	356.545	-20.1262	0.857371	0	-0.333159	-0	3.51133	-0
2	0	0	0	-0.00230866	0	-4.73619e-05	0	0	0	105.151	200.045	-13.0679	0.847763	0	-0.330497	-0	1.94631	-0
2.00833	0	0	0	-0.00230869	0	-4.73678e-05	0	0	0	56.2149	99.421	-8.16548	0.856733	0	-0.322724	-0	0.564657	-0
2.01667	0	0	0	-0.00230871	0	-4.73732e-05	0	0	0	25.2785	45.1071	-5.15002	0.873781	0	-0.299781	0	-0.470303	0
2.025	0	0	0	-0.00230873	0	-4.73781e-05	0	0	0	8.60939	19.4182	-2.81563	0.866458	0	-0.251347	0	-1.07762	0
2.03333	0	0	0	-0.00230875	0	-4.73826e-05	0	0	0	0	0	0	-0.00230758	0	-4.72095e-05	0	0	0
2.04167	0	0	0	-0.00230877	0	-4.73866e-05	0	0	0	0	0	0	-0.00230759	0	-4.72134e-05	0	0	0
2.05	0	0	0	-0.00230878	0	-4.73901e-05	0	0	0	0	0	0	-0.00230761	0	-4.72168e-05	0	0	0
2.05833	0	0	0	-0.00230879	0	-4.73932e-05	0	0	0	0	0	0	-0.00230762	0	-4.72198e-05	0	0	0
2.06667	0	0	0	-0.0023088	0	-4.73958e-05	0	0	0	0	0	0	-0.00230763	0	-4.72223e-05	0	0	0
2.075	0	0	0	-0.00230881	0	-4.73979e-05	0	0	0	0	0	0	-0.00230764	0	-4.72244e-05	0	0	0
2.08333	0	0	0	-0.00230882	0	-4.73996e-05	0	0	0	0	0	0	-0.00230764	0	-4.7226e-05	0	0	0
2.09167	0	0	0	-0.00230882	0	-4.74008e-05	0	0	0	0	0	0	-0.00230765	0	-4.72272e-05	0	0	0
2.1	0	0	0	-0.00230883	0	-4.74015e-05	0	0	0	0	0	0	-0.00230765	0	-4.72278e-05	0	0	0
2.10833	0	0	0	-0.00230883	0	-4.74017e-05	0	0	0	0	0	0	-0.00230765	0	-4.72281e-05	0	0	0
2.11667	0	0	0	-0.00230883	0	-4.74017e-05	0	0	0	0	0	0	-0.00230765	0	-4.7228e-05	0	0	0
2.125	-4.54207	22.4207	-12.0809	1.36608	0	-0.204645	0	-2.69623	0	0	0	0	-0.00230765	0	-4.72279e-05	0	0	0
2.13333	-24.5667	64.5449	-24.87	1.42551	0	-0.249742	-0	0.815024	-0	0	0	0	-0.00230765	0	-4.72278e-05	0	0	0
2.14167	-72.1748	175.478	-43.3435	1.45926	0	-0.267226	-0	4.75117	-0	0	0	0	-0.00230765	0	-4.72275e-05	0	0	0
2.15	-149.376	387.567	-62.9576	1.46911	0	-0.274472	-0	8.13877	-0	0	0	0	-0.00230764	0	-4.72272e-05	0	0	0
2.15833	-219.92	672.425	-74.4774	1.46194	0	-0.279528	-0	9.99252	-0	0	0	0	-0.00230764	0	-4.72269e-05	0	0	0
2.16667	-244.062	965.174	-69.1079	1.43575	0	-0.284746	-0	9.66751	-0	0	0	0	-0.00230764	0	-4.72264e-05	0	0	0
2.175	-252.053	1226.79	-44.7331	1.39842	0	-0.29029	-0	7.12427	-0	0	0	0	-0.00230763	0	-4.72259e-05	0	0	0
2.18333	-285.651	1435.89	-7.6646	1.36491	0	-0.295292	-0	2.96855	-0	0	0	0	-0.00230763	0	-4.72254e-05	0	0	0
2.19167	-323.4	1592.49	29.5387	1.33729	0	-0.29899	0	-1.76753	0	0	0	0	-0.00230762	0	-4.72247e-05	0	0	0
2.2	-326.824	1717.83	54.084	1.30866	0	-0.301648	0	-6.00844	0	0	0	0	-0.00230762	0	-4.7224e-05	0	0	0
2.20833	-282.556	1825.49	61.5654	1.27455	0	-0.303419	0	-9.00369	0	0	0	0	-0.00230761	0	-4.72233e-05	0	0	0
2.21667	-210.621	1905.96	58.702	1.23829	0	-0.304296	0	-10.5129	0	0	0	0	-0.0023076	0	-4.72224e-05	0	0	0
2.225	-138.573	1943.61	55.7605	1.20431	0	-0.30442	0	-10.7501	0	0	0	0	-0.0023076	0	-4.72215e-05	0	0	0
2.23333	-68.8882	1932.75	57.0414	1.17154	0	-0.304048	0	-10.1687	0	0	0	0	-0.00230759	0	-4.72206e-05	0	0	0
2.24167	2.45086	1870.26	59.9126	1.138	0	-0.303887	0	-9.22941	0	0	0	0	-0.00230758	0	-4.72196e-05	0	0	0
2.25	72.0602	1752.58	61.3601	1.10382	0	-0.304317	0	-8.24913	0	0	0	0	-0.00230757	0	-4.72185e-05	0	0	0
2.25833	134.672	1580.81	61.8085	1.06997	0	-0.305016	0	-7.34997	0	0	0	0	-0.00230756	0	-4.72173e-05	0	0	0
2.26667	186.51	1361.72	62.045	1.03616	0	-0.305427	0	-6.48944	0	0	0	0	-0.00230755	0	-4.72161e-05	0	0	0
2.275	225.436	1110.78	59.863	1.00047	0	-0.305066	0	-5.54755	0	0	0	0	-0.00230754	0	-4.72148e-05	0	0	0
2.28333	237.895	850.454	52.2257	0.964683	0	-0.304192	0	-4.43586	0	0	0	0	-0.00230752	0	-4.72134e-05	0	0	0
2.29167	215.317	605.04	39.7513	0.933753	0	-0.303312	0	-3.1755	0	0	0	0	-0.00230751	0	-4.7212e-05	0	0	0
2.3	167.754	393.802	26.7881	0.909771	0	-0.301743	0	-1.90202	0	0	0	0	-0.0023075	0	-4.72105e-05	0	0	0
2.30833	114.074	228.907	16.9279	0.888655	0	-0.297553	0	-0.803793	0	0	0	0	-0.00230749	0	-4.7209e-05	0	0	0
2.31667	68.3094	115.863	10.1663	0.863607	0	-0.286843	0	-0.042752	0	0	0	0	-0.00230747	0	-4.72074e-05	0	0	0
2.325	34.899	49.8189	4.87737	0.850475	0	-0.262918	-0	0.2965	-0	0	0	0	-0.00230746	0	-4.72057e-05	0	0	0
2.33333	15.5173	18.2801	0.89694	0.940918	0	-0.211069	-0	0.219475	-0	0	0	0	-0.00230744	0	-4.7204e-05	0	0	0
2.34167	0	0	0	-0.00230855	0	-4.73634e-05	0	0	0	0	0	0	-0.00230743	0	-4.72022e-05	0	0	0
2.35	0	0	0	-0.00230853	0	-4.73606e-05	0	0	0	0	0	0	-0.00230741	0	-4.72003e-05	0	0	0
2.35833	0	0	0	-0.00230851	0	-4.73578e-05	0	0	0	0	0	0	-0.00230739	0	-4.71984e-05	0	0	0
2.36667	0	0	0	-0.00230849	0	-4.73548e-05	0	0	0	0	0	0	-0.00230738	0	-4.71964e-05	0	0	0
2.375	0	0	0	-0.00230847	0	-4.73518e-05	0	0	0	0	0	0	-0.00230736	0	-4.71944e-05	0	0	0
2.38333	0	0	0	-0.00230845	0	-4.73487e-05	0	0	0	0	0	0	-0.00230734	0	-4.71923e-05	0	0	0
2.39167	0	0	0	-0.00230842	0	-4.73455e-05	0	0	0	0	0	0	-0.00230732	0	-4.71901e-05	0	0	0
2.4	0	0	0	-0.0023084	0	-4.73422e-05	0	0	0	0	0	0	-0.0023073	0	-4.71879e-05	0	0	0
2.40833	0	0	0	-0.00230838	0	-4.73388e-05	0	0	0	0	0	0	-0.00230728	0	-4.71856e-05	0	0	0
